<svg xmlns="http://www.w3.org/2000/svg" viewBox="0 0 512 512">
  <rect width="512" height="512" rx="112" fill="#245e48"/>
  <path d="M153 154c-30 0-46 17-46 48v30c0 18-7 24-24 24 17 0 24 7 24 24v31c0 31 16 47 46 47h25v-45h-11c-10 0-14-6-14-18v-34c0-27-13-42-35-47 22-5 35-21 35-47v-34c0-12 4-18 14-18h11V70h-25zm206 0c30 0 46 17 46 48v30c0 18 7 24 24 24-17 0-24 7-24 24v31c0 31-16 47-46 47h-25v-45h11c10 0 14-6 14-18v-34c0-27 13-42 35-47-22-5-35-21-35-47v-34c0-12-4-18-14-18h-11V70h25z" fill="#cce989"/>
  <circle cx="256" cy="256" r="45" fill="#fffdf8"/>
  <path d="M256 225a31 31 0 0 0-13 59v36h26v-36a31 31 0 0 0-13-59z" fill="#245e48"/>
</svg>
